<svg id="SvgjsSvg1001" width="288" height="288" xmlns="http://www.w3.org/2000/svg" version="1.1" xmlns:xlink="http://www.w3.org/1999/xlink" xmlns:svgjs="http://svgjs.com/svgjs"><defs id="SvgjsDefs1002"></defs><g id="SvgjsG1008" transform="matrix(0.9167,0,0,0.9167,11.995200000000011,11.995245758056654)"><svg xmlns="http://www.w3.org/2000/svg" width="288" height="288" viewBox="0 0 32 32"><g fill="#52cc99" stroke-linejoin="round" transform="translate(0 -1020.362)" class="color3b3c3d svgShape"><path fill-rule="evenodd" d="M4.75 1031.862v2.75H8v9.75h5.75v-12.5zm4.5 10.5a.5.5 0 1 1 0 1 .5.5 0 0 1 0-1z" fill="#ffffff" class="color000 svgShape"></path><path fill-rule="evenodd" d="M2 1035.612v8.75h5v-8.75zm2.5 6.75a.5.5 0 110 1 .5.5 0 010-1zM27.25 1041.612v-12.25a1 1 0 00-1-1h-18a1 1 0 00-1 1v1.5h7.5v10.75z" fill="#ffffff" class="color000 svgShape"></path><path d="M14.75 1044.362h13.316c.914 0 1.674-.736 1.934-1.75H14.75z" fill="#ffffff" class="color000 svgShape"></path></g></svg></g></svg>