<svg id="SvgjsSvg1001" width="288" height="288" xmlns="http://www.w3.org/2000/svg" version="1.1" xmlns:xlink="http://www.w3.org/1999/xlink" xmlns:svgjs="http://svgjs.com/svgjs"><defs id="SvgjsDefs1002"></defs><g id="SvgjsG1008" transform="matrix(0.9167,0,0,0.9167,11.995200000000011,11.807820758056636)"><svg xmlns="http://www.w3.org/2000/svg" width="288" height="288" viewBox="0 0 32 32"><g transform="translate(0 -1020.362)" fill="#52cc99" class="color000 svgShape"><path fill="none" stroke="#ffffff" stroke-linejoin="round" d="M2 1030.862v-7.5h13.5v24H2v-13.5M30 1041.362v6H17.5v-18H30v9" class="colorStroke000 svgStroke"></path><path d="M4 1024.862a.5.5 0 01-.5.5.5.5 0 01-.5-.5.5.5 0 01.5-.5.5.5 0 01.5.5zM14.5 1024.862a.5.5 0 01-.5.5.5.5 0 01-.5-.5.5.5 0 01.5-.5.5.5 0 01.5.5zM4 1045.862a.5.5 0 01-.5.5.5.5 0 01-.5-.5.5.5 0 01.5-.5.5.5 0 01.5.5zM14.5 1045.862a.5.5 0 01-.5.5.5.5 0 01-.5-.5.5.5 0 01.5-.5.5.5 0 01.5.5z" fill="#52cc99" class="color000 svgShape"></path><path fill="none" stroke="#ffffff" stroke-linecap="round" stroke-linejoin="round" d="M4.857 1039.806a4.247 4.25 0 0 1 4.15-2.942 4.247 4.25 0 0 1 3.994 3.15 4.247 4.25 0 0 1-1.889 4.726 4.247 4.25 0 0 1-5.063-.475" class="colorStroke000 svgStroke"></path><path fill="none" stroke="#ffffff" stroke-linecap="round" stroke-linejoin="round" d="M11.397 1041.113a2.499 2.5 0 0 1-1.977 2.445 2.499 2.5 0 0 1-2.803-1.425 2.499 2.5 0 0 1 .808-3.04 2.499 2.5 0 0 1 3.14.156" class="colorStroke000 svgStroke"></path><path d="M9.399 1041.113a.5.5 0 0 1-.5.5.5.5 0 0 1-.5-.5.5.5 0 0 1 .5-.5.5.5 0 0 1 .5.5z" fill="#52cc99" class="color000 svgShape"></path><path fill="none" stroke="#ffffff" stroke-linecap="round" stroke-linejoin="round" d="M12.054 1031.635a3.245 3.25 0 0 1-3.567 1.65 3.245 3.25 0 0 1-2.54-3.002 3.245 3.25 0 0 1 2.212-3.253 3.245 3.25 0 0 1 3.72 1.266" class="colorStroke000 svgStroke"></path><path fill="none" stroke="#ffffff" stroke-linecap="round" stroke-linejoin="round" d="M7.742 1029.374a1.622 1.625 0 0 1 1.859-.833 1.622 1.625 0 0 1 1.207 1.642 1.622 1.625 0 0 1-1.345 1.53" class="colorStroke000 svgStroke"></path><path d="M9.774 1030.101a.5.5 0 0 1-.5.5.5.5 0 0 1-.5-.5.5.5 0 0 1 .5-.5.5.5 0 0 1 .5.5z" fill="#52cc99" class="color000 svgShape"></path><path fill="none" stroke="#ffffff" stroke-linecap="round" stroke-linejoin="round" d="M26.092 1035.534a2.49 2.5 0 0 1-2.736 1.27 2.49 2.5 0 0 1-1.948-2.31 2.49 2.5 0 0 1 1.696-2.503 2.49 2.5 0 0 1 2.854.975" class="colorStroke000 svgStroke"></path><path d="M29 1030.862a.5.5 0 01-.5.5.5.5 0 01-.5-.5.5.5 0 01.5-.5.5.5 0 01.5.5zM19.5 1030.862a.5.5 0 01-.5.5.5.5 0 01-.5-.5.5.5 0 01.5-.5.5.5 0 01.5.5zM29 1045.862a.5.5 0 01-.5.5.5.5 0 01-.5-.5.5.5 0 01.5-.5.5.5 0 01.5.5zM19.5 1045.862a.5.5 0 01-.5.5.5.5 0 01-.5-.5.5.5 0 01.5-.5.5.5 0 01.5.5zM24.5 1034.362a.5.5 0 01-.5.5.5.5 0 01-.5-.5.5.5 0 01.5-.5.5.5 0 01.5.5z" fill="#52cc99" class="color000 svgShape"></path><path fill="none" stroke="#ffffff" stroke-linecap="round" stroke-linejoin="round" d="M20.662 1041.113a3.245 3.25 0 0 1 3.17-2.25 3.245 3.25 0 0 1 3.053 2.41 3.245 3.25 0 0 1-1.443 3.614 3.245 3.25 0 0 1-3.869-.364" class="colorStroke000 svgStroke"></path><path fill="none" stroke="#ffffff" stroke-linecap="round" stroke-linejoin="round" d="M25.046 1042.866a1.498 1.5 0 0 1-1.512.732 1.498 1.5 0 0 1-1.24-1.134 1.498 1.5 0 0 1 .589-1.575 1.498 1.5 0 0 1 1.679-.038" class="colorStroke000 svgStroke"></path><path fill="none" stroke="#ffffff" stroke-linecap="round" d="M3.507 1048.862h1.235M12.758 1048.862h1.235M27.507 1048.862h.986M19.007 1048.862h.986" class="colorStroke000 svgStroke"></path><path fill="none" stroke="#ffffff" d="M2 1031.862v1M30 1040.362v-1" class="colorStroke000 svgStroke"></path></g></svg></g></svg>