<svg id="SvgjsSvg1011" width="288" height="288" xmlns="http://www.w3.org/2000/svg" version="1.1" xmlns:xlink="http://www.w3.org/1999/xlink" xmlns:svgjs="http://svgjs.com/svgjs"><defs id="SvgjsDefs1012"></defs><g id="SvgjsG1013"><svg xmlns="http://www.w3.org/2000/svg" viewBox="0 0 32 32" width="288" height="288"><g data-name="Layer 2" fill="#f8f8f8" class="color000 svgShape"><path d="M27.33,31H4.67A3.67,3.67,0,0,1,1,27.33V12.67A3.67,3.67,0,0,1,4.67,9H27.33A3.67,3.67,0,0,1,31,12.67V27.33A3.67,3.67,0,0,1,27.33,31ZM4.67,11A1.67,1.67,0,0,0,3,12.67V27.33A1.67,1.67,0,0,0,4.67,29H27.33A1.67,1.67,0,0,0,29,27.33V12.67A1.67,1.67,0,0,0,27.33,11Z" fill="#f8f8f8" class="color000 svgShape"></path><path d="M16 10.79a2.82 2.82 0 0 1-1.76-.62L6.16 3.7A1 1 0 0 1 6 2.29H6a1 1 0 0 1 1.41-.16L15.49 8.6a.82.82 0 0 0 1 0l8.08-6.46A1 1 0 0 1 26 2.29h0a1 1 0 0 1-.16 1.41l-8.08 6.46A2.82 2.82 0 0 1 16 10.79zM21 26a6 6 0 1 1 6-6A6 6 0 0 1 21 26zm0-10a4 4 0 1 0 4 4A4 4 0 0 0 21 16z" fill="#f8f8f8" class="color000 svgShape"></path><rect width="4" height="2" x="7.44" y="16.88" rx="1" ry="1" fill="#f8f8f8" class="color000 svgShape"></rect><rect width="4" height="2" x="7.44" y="20.5" rx="1" ry="1" fill="#f8f8f8" class="color000 svgShape"></rect></g></svg></g></svg>